<mxfile host="65bd71144e">
    <diagram id="cczpVjkR36ITg0IE3CeR" name="Page-1">
        <mxGraphModel dx="2537" dy="1078" grid="1" gridSize="10" guides="1" tooltips="1" connect="1" arrows="1" fold="1" page="1" pageScale="1" pageWidth="827" pageHeight="1169" math="0" shadow="0">
            <root>
                <mxCell id="0"/>
                <mxCell id="1" parent="0"/>
                <mxCell id="90" value="" style="rounded=1;whiteSpace=wrap;html=1;" parent="1" vertex="1">
                    <mxGeometry x="140" y="265" width="240" height="295" as="geometry"/>
                </mxCell>
                <mxCell id="85" value="" style="rounded=1;whiteSpace=wrap;html=1;" parent="1" vertex="1">
                    <mxGeometry x="414" y="720" width="240" height="380" as="geometry"/>
                </mxCell>
                <mxCell id="18" value="" style="rounded=1;whiteSpace=wrap;html=1;" parent="1" vertex="1">
                    <mxGeometry x="140" y="720" width="240" height="380" as="geometry"/>
                </mxCell>
                <mxCell id="17" value="" style="rounded=1;whiteSpace=wrap;html=1;" parent="1" vertex="1">
                    <mxGeometry x="-160" y="720" width="260" height="380" as="geometry"/>
                </mxCell>
                <mxCell id="2" value="" style="rounded=0;whiteSpace=wrap;html=1;" parent="1" vertex="1">
                    <mxGeometry x="160" y="310" width="200" height="220" as="geometry"/>
                </mxCell>
                <mxCell id="3" value="simpledb-cluster" style="text;html=1;strokeColor=none;fillColor=none;align=center;verticalAlign=middle;whiteSpace=wrap;rounded=0;" parent="1" vertex="1">
                    <mxGeometry x="160" y="310" width="110" height="30" as="geometry"/>
                </mxCell>
                <mxCell id="6" value="" style="rounded=0;whiteSpace=wrap;html=1;" parent="1" vertex="1">
                    <mxGeometry x="-120" y="760" width="170" height="310" as="geometry"/>
                </mxCell>
                <mxCell id="7" value="simpledb" style="text;html=1;strokeColor=none;fillColor=none;align=center;verticalAlign=middle;whiteSpace=wrap;rounded=0;" parent="1" vertex="1">
                    <mxGeometry x="-140" y="760" width="110" height="30" as="geometry"/>
                </mxCell>
                <mxCell id="8" value="" style="rounded=0;whiteSpace=wrap;html=1;" parent="1" vertex="1">
                    <mxGeometry x="440" y="760" width="180" height="310" as="geometry"/>
                </mxCell>
                <mxCell id="9" value="simpledb" style="text;html=1;strokeColor=none;fillColor=none;align=center;verticalAlign=middle;whiteSpace=wrap;rounded=0;" parent="1" vertex="1">
                    <mxGeometry x="420" y="760" width="110" height="30" as="geometry"/>
                </mxCell>
                <mxCell id="10" value="" style="rounded=0;whiteSpace=wrap;html=1;" parent="1" vertex="1">
                    <mxGeometry x="175" y="760" width="170" height="310" as="geometry"/>
                </mxCell>
                <mxCell id="11" value="simpledb" style="text;html=1;strokeColor=none;fillColor=none;align=center;verticalAlign=middle;whiteSpace=wrap;rounded=0;" parent="1" vertex="1">
                    <mxGeometry x="155" y="760" width="110" height="30" as="geometry"/>
                </mxCell>
                <mxCell id="12" value="" style="endArrow=classic;startArrow=classic;html=1;entryX=0.5;entryY=1;entryDx=0;entryDy=0;exitX=0.5;exitY=0;exitDx=0;exitDy=0;" parent="1" source="6" target="2" edge="1">
                    <mxGeometry width="50" height="50" relative="1" as="geometry">
                        <mxPoint x="600" y="590" as="sourcePoint"/>
                        <mxPoint x="650" y="540" as="targetPoint"/>
                    </mxGeometry>
                </mxCell>
                <mxCell id="13" value="" style="endArrow=classic;startArrow=classic;html=1;entryX=0.5;entryY=1;entryDx=0;entryDy=0;exitX=0.5;exitY=0;exitDx=0;exitDy=0;" parent="1" source="10" target="2" edge="1">
                    <mxGeometry width="50" height="50" relative="1" as="geometry">
                        <mxPoint x="-20" y="680" as="sourcePoint"/>
                        <mxPoint x="270" y="540" as="targetPoint"/>
                    </mxGeometry>
                </mxCell>
                <mxCell id="14" value="" style="endArrow=classic;startArrow=classic;html=1;entryX=0.5;entryY=1;entryDx=0;entryDy=0;exitX=0.535;exitY=0.001;exitDx=0;exitDy=0;exitPerimeter=0;" parent="1" source="8" target="2" edge="1">
                    <mxGeometry width="50" height="50" relative="1" as="geometry">
                        <mxPoint x="270" y="680" as="sourcePoint"/>
                        <mxPoint x="270" y="540" as="targetPoint"/>
                    </mxGeometry>
                </mxCell>
                <mxCell id="21" value="" style="rounded=0;whiteSpace=wrap;html=1;" parent="1" vertex="1">
                    <mxGeometry x="-100" y="980" width="120" height="70" as="geometry"/>
                </mxCell>
                <mxCell id="31" value="" style="rounded=0;whiteSpace=wrap;html=1;" parent="1" vertex="1">
                    <mxGeometry x="-100" y="890" width="120" height="80" as="geometry"/>
                </mxCell>
                <mxCell id="32" value="Storage" style="text;html=1;strokeColor=none;fillColor=none;align=center;verticalAlign=middle;whiteSpace=wrap;rounded=0;" parent="1" vertex="1">
                    <mxGeometry x="-100" y="890" width="60" height="20" as="geometry"/>
                </mxCell>
                <mxCell id="33" value="Node" style="text;html=1;strokeColor=none;fillColor=none;align=center;verticalAlign=middle;whiteSpace=wrap;rounded=0;" parent="1" vertex="1">
                    <mxGeometry x="-100" y="980" width="50" height="20" as="geometry"/>
                </mxCell>
                <mxCell id="34" value="Raft Node" style="rounded=0;whiteSpace=wrap;html=1;" parent="1" vertex="1">
                    <mxGeometry x="-80" y="1010" width="80" height="30" as="geometry"/>
                </mxCell>
                <mxCell id="36" value="LSM storage engine" style="rounded=0;whiteSpace=wrap;html=1;" parent="1" vertex="1">
                    <mxGeometry x="-80" y="920" width="80" height="40" as="geometry"/>
                </mxCell>
                <mxCell id="38" value="" style="rounded=0;whiteSpace=wrap;html=1;" parent="1" vertex="1">
                    <mxGeometry x="-100" y="810" width="120" height="70" as="geometry"/>
                </mxCell>
                <mxCell id="39" value="HTTP Server" style="text;html=1;strokeColor=none;fillColor=none;align=center;verticalAlign=middle;whiteSpace=wrap;rounded=0;" parent="1" vertex="1">
                    <mxGeometry x="-100" y="810" width="80" height="20" as="geometry"/>
                </mxCell>
                <mxCell id="40" value="" style="rounded=0;whiteSpace=wrap;html=1;" parent="1" vertex="1">
                    <mxGeometry x="195" y="980" width="120" height="70" as="geometry"/>
                </mxCell>
                <mxCell id="41" value="" style="rounded=0;whiteSpace=wrap;html=1;" parent="1" vertex="1">
                    <mxGeometry x="195" y="890" width="120" height="80" as="geometry"/>
                </mxCell>
                <mxCell id="42" value="Storage" style="text;html=1;strokeColor=none;fillColor=none;align=center;verticalAlign=middle;whiteSpace=wrap;rounded=0;" parent="1" vertex="1">
                    <mxGeometry x="195" y="890" width="60" height="20" as="geometry"/>
                </mxCell>
                <mxCell id="43" value="Node" style="text;html=1;strokeColor=none;fillColor=none;align=center;verticalAlign=middle;whiteSpace=wrap;rounded=0;" parent="1" vertex="1">
                    <mxGeometry x="195" y="980" width="50" height="20" as="geometry"/>
                </mxCell>
                <mxCell id="44" value="Raft Node" style="rounded=0;whiteSpace=wrap;html=1;" parent="1" vertex="1">
                    <mxGeometry x="215" y="1010" width="80" height="30" as="geometry"/>
                </mxCell>
                <mxCell id="45" value="LSM storage engine" style="rounded=0;whiteSpace=wrap;html=1;" parent="1" vertex="1">
                    <mxGeometry x="215" y="920" width="80" height="40" as="geometry"/>
                </mxCell>
                <mxCell id="46" value="" style="rounded=0;whiteSpace=wrap;html=1;" parent="1" vertex="1">
                    <mxGeometry x="195" y="810" width="120" height="70" as="geometry"/>
                </mxCell>
                <mxCell id="47" value="HTTP Server" style="text;html=1;strokeColor=none;fillColor=none;align=center;verticalAlign=middle;whiteSpace=wrap;rounded=0;" parent="1" vertex="1">
                    <mxGeometry x="195" y="810" width="80" height="20" as="geometry"/>
                </mxCell>
                <mxCell id="48" value="" style="rounded=0;whiteSpace=wrap;html=1;" parent="1" vertex="1">
                    <mxGeometry x="470" y="980" width="120" height="70" as="geometry"/>
                </mxCell>
                <mxCell id="49" value="" style="rounded=0;whiteSpace=wrap;html=1;" parent="1" vertex="1">
                    <mxGeometry x="470" y="890" width="120" height="80" as="geometry"/>
                </mxCell>
                <mxCell id="50" value="Storage" style="text;html=1;strokeColor=none;fillColor=none;align=center;verticalAlign=middle;whiteSpace=wrap;rounded=0;" parent="1" vertex="1">
                    <mxGeometry x="470" y="890" width="60" height="20" as="geometry"/>
                </mxCell>
                <mxCell id="51" value="Node" style="text;html=1;strokeColor=none;fillColor=none;align=center;verticalAlign=middle;whiteSpace=wrap;rounded=0;" parent="1" vertex="1">
                    <mxGeometry x="470" y="980" width="50" height="20" as="geometry"/>
                </mxCell>
                <mxCell id="52" value="Raft Node" style="rounded=0;whiteSpace=wrap;html=1;" parent="1" vertex="1">
                    <mxGeometry x="490" y="1010" width="80" height="30" as="geometry"/>
                </mxCell>
                <mxCell id="53" value="LSM storage engine" style="rounded=0;whiteSpace=wrap;html=1;" parent="1" vertex="1">
                    <mxGeometry x="490" y="920" width="80" height="40" as="geometry"/>
                </mxCell>
                <mxCell id="54" value="" style="rounded=0;whiteSpace=wrap;html=1;" parent="1" vertex="1">
                    <mxGeometry x="470" y="810" width="120" height="70" as="geometry"/>
                </mxCell>
                <mxCell id="55" value="HTTP Server" style="text;html=1;strokeColor=none;fillColor=none;align=center;verticalAlign=middle;whiteSpace=wrap;rounded=0;" parent="1" vertex="1">
                    <mxGeometry x="470" y="810" width="80" height="20" as="geometry"/>
                </mxCell>
                <mxCell id="26" value="" style="curved=1;startArrow=classic;endArrow=classic;html=1;exitX=0.5;exitY=1;exitDx=0;exitDy=0;entryX=0.5;entryY=1;entryDx=0;entryDy=0;" parent="1" source="44" target="52" edge="1">
                    <mxGeometry width="50" height="50" relative="1" as="geometry">
                        <mxPoint x="260" y="960" as="sourcePoint"/>
                        <mxPoint x="520" y="960" as="targetPoint"/>
                        <Array as="points">
                            <mxPoint x="370" y="1100"/>
                            <mxPoint x="390" y="1110"/>
                            <mxPoint x="410" y="1110"/>
                            <mxPoint x="450" y="1090"/>
                        </Array>
                    </mxGeometry>
                </mxCell>
                <mxCell id="24" value="" style="curved=1;startArrow=classic;endArrow=classic;html=1;entryX=0.5;entryY=1;entryDx=0;entryDy=0;exitX=0.5;exitY=1;exitDx=0;exitDy=0;" parent="1" source="34" target="44" edge="1">
                    <mxGeometry width="50" height="50" relative="1" as="geometry">
                        <mxPoint x="-40" y="1050" as="sourcePoint"/>
                        <mxPoint x="260" y="960" as="targetPoint"/>
                        <Array as="points">
                            <mxPoint x="130" y="1160"/>
                        </Array>
                    </mxGeometry>
                </mxCell>
                <mxCell id="25" value="" style="curved=1;startArrow=classic;endArrow=classic;html=1;exitX=0.5;exitY=1;exitDx=0;exitDy=0;entryX=0.5;entryY=1;entryDx=0;entryDy=0;" parent="1" source="34" target="52" edge="1">
                    <mxGeometry width="50" height="50" relative="1" as="geometry">
                        <mxPoint x="10" y="1070" as="sourcePoint"/>
                        <mxPoint x="520" y="960" as="targetPoint"/>
                        <Array as="points">
                            <mxPoint x="220" y="1210"/>
                            <mxPoint x="420" y="1190"/>
                        </Array>
                    </mxGeometry>
                </mxCell>
                <mxCell id="57" value="" style="rounded=0;whiteSpace=wrap;html=1;" parent="1" vertex="1">
                    <mxGeometry x="200" y="350" width="120" height="70" as="geometry"/>
                </mxCell>
                <mxCell id="58" value="HTTP Server" style="text;html=1;strokeColor=none;fillColor=none;align=center;verticalAlign=middle;whiteSpace=wrap;rounded=0;" parent="1" vertex="1">
                    <mxGeometry x="200" y="350" width="80" height="20" as="geometry"/>
                </mxCell>
                <mxCell id="59" value="" style="rounded=0;whiteSpace=wrap;html=1;" parent="1" vertex="1">
                    <mxGeometry x="200" y="440" width="120" height="70" as="geometry"/>
                </mxCell>
                <mxCell id="60" value="NodeManager" style="text;html=1;strokeColor=none;fillColor=none;align=center;verticalAlign=middle;whiteSpace=wrap;rounded=0;" parent="1" vertex="1">
                    <mxGeometry x="200" y="440" width="90" height="20" as="geometry"/>
                </mxCell>
                <mxCell id="61" value="Client" style="rounded=1;whiteSpace=wrap;html=1;" parent="1" vertex="1">
                    <mxGeometry x="-473" y="790" width="120" height="90" as="geometry"/>
                </mxCell>
                <mxCell id="68" value="" style="endArrow=classic;html=1;exitX=1;exitY=0.5;exitDx=0;exitDy=0;entryX=0;entryY=0.25;entryDx=0;entryDy=0;" parent="1" source="61" target="6" edge="1">
                    <mxGeometry width="50" height="50" relative="1" as="geometry">
                        <mxPoint x="-343" y="855" as="sourcePoint"/>
                        <mxPoint x="170" y="430" as="targetPoint"/>
                    </mxGeometry>
                </mxCell>
                <mxCell id="70" value="Request HTTP&lt;br&gt;(GET, PUT, DELETE)" style="text;html=1;strokeColor=none;fillColor=none;align=center;verticalAlign=middle;whiteSpace=wrap;rounded=0;" parent="1" vertex="1">
                    <mxGeometry x="-220" y="560" width="120" height="30" as="geometry"/>
                </mxCell>
                <mxCell id="72" value="Redirect to&lt;br&gt;Leader Node" style="text;html=1;strokeColor=none;fillColor=none;align=center;verticalAlign=middle;whiteSpace=wrap;rounded=0;" parent="1" vertex="1">
                    <mxGeometry x="-95" y="600" width="130" height="30" as="geometry"/>
                </mxCell>
                <mxCell id="73" value="" style="endArrow=classic;html=1;entryX=-0.008;entryY=0.472;entryDx=0;entryDy=0;entryPerimeter=0;exitX=0.877;exitY=0.011;exitDx=0;exitDy=0;exitPerimeter=0;" parent="1" source="61" target="2" edge="1">
                    <mxGeometry width="50" height="50" relative="1" as="geometry">
                        <mxPoint x="-370" y="770" as="sourcePoint"/>
                        <mxPoint x="270" y="760" as="targetPoint"/>
                    </mxGeometry>
                </mxCell>
                <mxCell id="74" value="" style="endArrow=classic;html=1;exitX=0;exitY=0.591;exitDx=0;exitDy=0;exitPerimeter=0;entryX=1.002;entryY=0.156;entryDx=0;entryDy=0;entryPerimeter=0;" parent="1" source="2" target="61" edge="1">
                    <mxGeometry width="50" height="50" relative="1" as="geometry">
                        <mxPoint x="-10" y="610" as="sourcePoint"/>
                        <mxPoint x="-350" y="820" as="targetPoint"/>
                    </mxGeometry>
                </mxCell>
                <mxCell id="78" value="RPC" style="text;html=1;strokeColor=none;fillColor=none;align=center;verticalAlign=middle;whiteSpace=wrap;rounded=0;" parent="1" vertex="1">
                    <mxGeometry x="240" y="1200" width="120" height="30" as="geometry"/>
                </mxCell>
                <mxCell id="79" value="RPC" style="text;html=1;strokeColor=none;fillColor=none;align=center;verticalAlign=middle;whiteSpace=wrap;rounded=0;" parent="1" vertex="1">
                    <mxGeometry x="90" y="1100" width="120" height="30" as="geometry"/>
                </mxCell>
                <mxCell id="80" value="RPC" style="text;html=1;strokeColor=none;fillColor=none;align=center;verticalAlign=middle;whiteSpace=wrap;rounded=0;" parent="1" vertex="1">
                    <mxGeometry x="320" y="1110" width="120" height="30" as="geometry"/>
                </mxCell>
                <mxCell id="82" value="HTTP" style="text;html=1;strokeColor=none;fillColor=none;align=center;verticalAlign=middle;whiteSpace=wrap;rounded=0;" parent="1" vertex="1">
                    <mxGeometry x="375" y="630" width="120" height="30" as="geometry"/>
                </mxCell>
                <mxCell id="83" value="HTTP" style="text;html=1;strokeColor=none;fillColor=none;align=center;verticalAlign=middle;whiteSpace=wrap;rounded=0;" parent="1" vertex="1">
                    <mxGeometry x="240" y="630" width="120" height="30" as="geometry"/>
                </mxCell>
                <mxCell id="84" value="HTTP" style="text;html=1;strokeColor=none;fillColor=none;align=center;verticalAlign=middle;whiteSpace=wrap;rounded=0;" parent="1" vertex="1">
                    <mxGeometry x="90" y="630" width="120" height="30" as="geometry"/>
                </mxCell>
                <mxCell id="86" value="xxx.xxx.xxx.1" style="text;html=1;strokeColor=none;fillColor=none;align=center;verticalAlign=middle;whiteSpace=wrap;rounded=0;" parent="1" vertex="1">
                    <mxGeometry x="-140" y="720" width="60" height="30" as="geometry"/>
                </mxCell>
                <mxCell id="87" value="xxx.xxx.xxx.2" style="text;html=1;strokeColor=none;fillColor=none;align=center;verticalAlign=middle;whiteSpace=wrap;rounded=0;" parent="1" vertex="1">
                    <mxGeometry x="165" y="720" width="60" height="30" as="geometry"/>
                </mxCell>
                <mxCell id="88" value="xxx.xxx.xxx.3" style="text;html=1;strokeColor=none;fillColor=none;align=center;verticalAlign=middle;whiteSpace=wrap;rounded=0;" parent="1" vertex="1">
                    <mxGeometry x="570" y="720" width="60" height="30" as="geometry"/>
                </mxCell>
                <mxCell id="89" value="xxx.xxx.xxx.100" style="text;html=1;strokeColor=none;fillColor=none;align=center;verticalAlign=middle;whiteSpace=wrap;rounded=0;" parent="1" vertex="1">
                    <mxGeometry x="160" y="270" width="60" height="30" as="geometry"/>
                </mxCell>
                <mxCell id="91" value="Request HTTP&lt;br&gt;(GET, PUT, DELETE)" style="text;html=1;strokeColor=none;fillColor=none;align=center;verticalAlign=middle;whiteSpace=wrap;rounded=0;" vertex="1" parent="1">
                    <mxGeometry x="-310" y="790" width="120" height="30" as="geometry"/>
                </mxCell>
            </root>
        </mxGraphModel>
    </diagram>
</mxfile>